<svg width="114" height="23" viewBox="0 0 114 23" xmlns="http://www.w3.org/2000/svg"><title>logo_gorizontal copy</title><g fill="#FFF" fill-rule="evenodd"><path d="M38.29 5.862h-4.284V18H31.13V5.862h-4.306V3.3H38.29v2.562zm-.84 2.247c.56-.253 1.225-.452 1.995-.6.77-.147 1.575-.22 2.415-.22.728 0 1.337.087 1.827.263.49.175.878.423 1.166.745.287.322.49.707.608 1.155.12.448.18.952.18 1.512 0 .616-.02 1.235-.063 1.858-.042.624-.066 1.236-.073 1.838-.008.603.01 1.187.052 1.755.042.567.147 1.102.315 1.606h-2.225l-.44-1.448h-.106c-.28.434-.67.808-1.166 1.123-.498.316-1.138.473-1.922.473-.49 0-.93-.073-1.323-.22-.393-.148-.73-.357-1.01-.63-.28-.274-.496-.595-.65-.966-.154-.372-.23-.788-.23-1.25 0-.644.142-1.186.43-1.627.287-.442.7-.798 1.24-1.072.538-.273 1.18-.46 1.93-.567.75-.105 1.586-.136 2.51-.094.098-.784.042-1.347-.168-1.69-.21-.344-.68-.515-1.407-.515-.546 0-1.123.056-1.733.168-.61.112-1.11.26-1.5.44L37.45 8.11zm3.465 7.81c.546 0 .98-.12 1.302-.367.322-.245.56-.507.714-.787V13.4c-.433-.04-.85-.048-1.248-.02-.4.028-.753.09-1.06.19-.31.097-.554.237-.736.42-.182.18-.273.412-.273.692 0 .392.115.696.346.913.23.218.55.326.955.326zM47.93 3.3h2.73v5.04h.083c.294-.336.672-.602 1.134-.798.462-.196.973-.294 1.533-.294 1.26 0 2.222.43 2.888 1.292.665.86.997 2.173.997 3.937 0 1.89-.465 3.325-1.397 4.305-.93.98-2.208 1.47-3.832 1.47-.896 0-1.715-.073-2.457-.22-.743-.148-1.303-.312-1.68-.494V3.3zm4.682 6.258c-.504 0-.913.13-1.23.39-.314.258-.555.632-.723 1.122v4.578c.223.112.464.19.724.23.26.043.535.064.83.064.74 0 1.304-.27 1.69-.81.385-.538.577-1.395.577-2.57 0-2.003-.622-3.004-1.868-3.004zM65.15 18v-5.712c0-.966-.092-1.652-.274-2.058-.182-.406-.56-.61-1.134-.61-.476 0-.86.13-1.155.39-.294.26-.518.59-.672.997V18h-2.73V7.5h2.12l.316 1.386h.085c.322-.448.73-.84 1.23-1.176.496-.336 1.136-.504 1.92-.504.672 0 1.22.136 1.648.41.428.273.76.73.998 1.375.323-.545.736-.98 1.24-1.3.504-.323 1.113-.484 1.827-.484.588 0 1.088.07 1.502.21.412.14.747.38 1.007.724.26.344.45.802.577 1.376.126.574.19 1.302.19 2.184V18h-2.73v-5.9c0-.827-.088-1.446-.264-1.86-.175-.413-.563-.62-1.165-.62-.49 0-.878.134-1.166.4-.288.266-.5.63-.64 1.092V18h-2.73zm10.877-9.89c.56-.253 1.225-.452 1.995-.6.77-.147 1.575-.22 2.415-.22.728 0 1.337.087 1.827.263.49.175.878.423 1.166.745.287.322.49.707.608 1.155.12.448.18.952.18 1.512 0 .616-.022 1.235-.064 1.858-.042.624-.066 1.236-.073 1.838-.007.603.01 1.187.053 1.755.042.567.147 1.102.315 1.606h-2.226l-.44-1.448h-.106c-.28.434-.668.808-1.166 1.123-.497.316-1.137.473-1.92.473-.49 0-.932-.073-1.324-.22-.392-.148-.728-.357-1.008-.63-.28-.274-.497-.595-.65-.966-.155-.372-.232-.788-.232-1.25 0-.644.143-1.186.43-1.627.288-.442.7-.798 1.24-1.072.54-.273 1.182-.46 1.93-.567.75-.105 1.587-.136 2.51-.094.1-.784.043-1.347-.167-1.69-.21-.344-.68-.515-1.408-.515-.546 0-1.123.056-1.733.168-.61.112-1.11.26-1.502.44l-.65-2.036zm3.465 7.81c.546 0 .98-.12 1.302-.367.322-.245.56-.507.714-.787V13.4c-.434-.04-.85-.048-1.25-.02s-.752.09-1.06.19c-.308.097-.553.237-.735.42-.182.18-.273.412-.273.692 0 .392.115.696.347.913.23.218.55.326.955.326zm10.48-2.267h-.736V18h-2.73V3.3h2.73v8.673l.63-.294L92.26 7.5h3.003l-2.52 3.99-1.07.798 1.154.82L95.662 18h-3.13l-2.56-4.347zm14.993 3.444c-.42.336-.99.62-1.712.85-.72.232-1.487.347-2.3.347-1.693 0-2.932-.493-3.716-1.48-.784-.988-1.176-2.342-1.176-4.064 0-1.848.442-3.234 1.324-4.158.882-.924 2.12-1.386 3.717-1.386.533 0 1.05.07 1.555.21.504.14.952.37 1.344.693.39.32.706.755.944 1.3.238.547.357 1.226.357 2.038 0 .294-.016.61-.05.945-.037.336-.09.686-.16 1.05h-6.3c.043.882.27 1.547.683 1.995.414.448 1.082.672 2.006.672.573 0 1.087-.087 1.542-.262.456-.176.802-.354 1.04-.536l.903 1.785zM101.06 9.39c-.715 0-1.243.213-1.587.64-.343.428-.55.998-.62 1.712h3.907c.056-.756-.06-1.337-.347-1.743-.287-.407-.738-.61-1.354-.61zm11.97.672c-.435-.154-.827-.23-1.177-.23-.49 0-.9.128-1.228.387-.33.26-.55.59-.662.997V18h-2.73V7.5h2.12l.316 1.386h.083c.238-.518.56-.917.966-1.197.405-.28.88-.42 1.427-.42.364 0 .777.076 1.24.23l-.358 2.562zM8.587 19.77l8.214-4.776V5.396L8.546.596.29 5.397v9.598l4.073 2.368v4.843l4.23-2.433-.006-.003zM8.463 5.354l4.093 2.38v4.757l-4.093 2.38-4.093-2.38V7.734l4.093-2.38z"/></g></svg>